<svg width="18" height="18" viewBox="0 0 18 18" fill="none" xmlns="http://www.w3.org/2000/svg">
<path d="M5.93413 8.16663C5.76932 8.16663 5.6082 8.2155 5.47116 8.30707C5.33412 8.39864 5.22731 8.52878 5.16423 8.68106C5.10116 8.83333 5.08466 9.00088 5.11681 9.16253C5.14897 9.32419 5.22833 9.47267 5.34488 9.58921C5.46142 9.70576 5.60991 9.78513 5.77156 9.81728C5.93321 9.84943 6.10076 9.83293 6.25304 9.76986C6.40531 9.70679 6.53546 9.59998 6.62702 9.46293C6.71859 9.32589 6.76747 9.16478 6.76747 8.99996C6.76747 8.77894 6.67967 8.56698 6.52339 8.4107C6.36711 8.25442 6.15515 8.16663 5.93413 8.16663ZM9.26747 8.16663C9.10265 8.16663 8.94153 8.2155 8.80449 8.30707C8.66745 8.39864 8.56064 8.52878 8.49757 8.68106C8.43449 8.83333 8.41799 9.00088 8.45015 9.16253C8.4823 9.32419 8.56167 9.47267 8.67821 9.58921C8.79475 9.70576 8.94324 9.78513 9.10489 9.81728C9.26654 9.84943 9.4341 9.83293 9.58637 9.76986C9.73864 9.70679 9.86879 9.59998 9.96036 9.46293C10.0519 9.32589 10.1008 9.16478 10.1008 8.99996C10.1008 8.77894 10.013 8.56698 9.85672 8.4107C9.70044 8.25442 9.48848 8.16663 9.26747 8.16663ZM12.6008 8.16663C12.436 8.16663 12.2749 8.2155 12.1378 8.30707C12.0008 8.39864 11.894 8.52878 11.8309 8.68106C11.7678 8.83333 11.7513 9.00088 11.7835 9.16253C11.8156 9.32419 11.895 9.47267 12.0115 9.58921C12.1281 9.70576 12.2766 9.78513 12.4382 9.81728C12.5999 9.84943 12.7674 9.83293 12.9197 9.76986C13.072 9.70679 13.2021 9.59998 13.2937 9.46293C13.3853 9.32589 13.4341 9.16478 13.4341 8.99996C13.4341 8.77894 13.3463 8.56698 13.1901 8.4107C13.0338 8.25442 12.8218 8.16663 12.6008 8.16663ZM9.26747 0.666626C8.17312 0.666626 7.08948 0.882174 6.07844 1.30096C5.06739 1.71975 4.14873 2.33358 3.37491 3.1074C1.81211 4.67021 0.934133 6.78982 0.934133 8.99996C0.926848 10.9242 1.59313 12.7904 2.81747 14.275L1.1508 15.9416C1.03517 16.0588 0.956838 16.2076 0.925693 16.3693C0.894548 16.5309 0.911984 16.6982 0.9758 16.85C1.04501 16.9999 1.15722 17.1259 1.29817 17.212C1.43912 17.298 1.60247 17.3402 1.76747 17.3333H9.26747C11.4776 17.3333 13.5972 16.4553 15.16 14.8925C16.7228 13.3297 17.6008 11.2101 17.6008 8.99996C17.6008 6.78982 16.7228 4.67021 15.16 3.1074C13.5972 1.5446 11.4776 0.666626 9.26747 0.666626ZM9.26747 15.6666H3.7758L4.5508 14.8916C4.62954 14.8144 4.69218 14.7224 4.7351 14.6208C4.77801 14.5193 4.80034 14.4102 4.8008 14.3C4.79767 14.0802 4.70781 13.8705 4.5508 13.7166C3.45962 12.6267 2.78011 11.1921 2.62804 9.65729C2.47597 8.1225 2.86075 6.58246 3.71682 5.29956C4.57289 4.01666 5.84729 3.07026 7.3229 2.6216C8.7985 2.17295 10.384 2.2498 11.8093 2.83905C13.2346 3.42831 14.4115 4.49352 15.1395 5.8532C15.8675 7.21288 16.1015 8.78291 15.8017 10.2958C15.502 11.8087 14.6869 13.1708 13.4954 14.1502C12.3039 15.1295 10.8098 15.6654 9.26747 15.6666Z" fill="#707070"/>
</svg>
